<?xml version="1.0" standalone="no"?>
<!DOCTYPE svg PUBLIC "-//W3C//DTD SVG 20010904//EN"
 "http://www.w3.org/TR/2001/REC-SVG-20010904/DTD/svg10.dtd">
<svg version="1.0" xmlns="http://www.w3.org/2000/svg"
 width="1600.000000pt" height="1200.000000pt" viewBox="0 0 1600.000000 1200.000000"
 preserveAspectRatio="xMidYMid meet">

<g transform="translate(0.000000,1200.000000) scale(0.100000,-0.100000)"
fill="#000000" stroke="none">
<path d="M7743 8715 c-333 -51 -665 -195 -918 -398 -111 -90 -277 -265 -358
-377 -132 -186 -248 -450 -296 -675 -133 -618 70 -1278 533 -1741 61 -60 125
-120 142 -132 l32 -22 192 256 c105 141 190 257 188 258 -2 1 -38 32 -80 69
l-76 67 -128 -157 c-70 -87 -131 -162 -136 -168 -14 -15 -127 111 -209 234
-128 190 -218 404 -255 606 -22 123 -29 463 -12 570 l13 80 108 3 c69 2 107
-1 107 -8 0 -5 -7 -52 -16 -102 -22 -126 -14 -405 15 -528 25 -109 74 -246
118 -335 46 -90 113 -197 123 -193 4 2 38 38 77 82 l70 79 -44 76 c-73 127
-127 290 -148 444 l-6 47 109 0 110 0 7 -57 c14 -117 79 -280 158 -398 44 -66
204 -235 222 -235 6 0 39 38 74 85 l63 85 -69 68 c-81 79 -121 136 -168 235
-56 118 -70 184 -70 337 0 113 4 147 24 210 81 261 263 450 516 536 115 39
304 46 425 15 269 -68 469 -251 564 -519 30 -84 31 -93 31 -257 0 -152 -2
-177 -23 -237 -49 -142 -140 -249 -412 -483 -447 -386 -610 -616 -724 -1023
-51 -179 -89 -494 -72 -586 l7 -36 104 0 105 0 0 118 c0 108 13 262 26 305 5
15 19 17 110 17 80 0 104 -3 104 -13 0 -8 -7 -58 -15 -113 -8 -54 -15 -147
-15 -206 l0 -108 328 0 328 0 -4 84 c-9 170 49 341 165 486 65 83 132 144 363
336 287 237 435 408 545 629 91 183 142 372 165 611 57 600 -134 1137 -551
1554 -122 123 -282 246 -397 308 -44 23 -82 42 -86 42 -3 0 -6 -56 -6 -124 l0
-124 98 -65 c516 -345 798 -965 717 -1579 -8 -63 -25 -154 -38 -203 l-23 -90
-234 -5 -234 -5 -46 -81 c-100 -178 -189 -273 -450 -479 -96 -76 -212 -175
-257 -221 -88 -90 -193 -239 -243 -346 l-32 -68 -113 0 -114 0 13 38 c24 66
97 205 154 292 71 107 258 296 454 458 257 214 376 352 448 520 32 75 70 218
70 265 l0 27 110 0 c126 0 117 9 95 -107 -8 -43 -15 -79 -15 -80 0 -2 51 -3
114 -3 l114 0 7 46 c84 561 -127 1082 -573 1412 -81 60 -224 143 -269 157 -23
6 -23 6 -23 -112 l0 -119 67 -39 c245 -143 440 -386 534 -663 24 -71 59 -227
59 -263 0 -15 -210 -11 -214 4 -2 6 -11 48 -21 92 -38 176 -134 352 -263 483
-495 501 -1327 358 -1626 -279 -25 -52 -54 -137 -66 -189 -12 -52 -24 -101
-26 -107 -4 -15 -199 -19 -208 -5 -8 14 24 175 54 264 92 275 289 519 535 663
l65 38 0 118 c0 66 -3 119 -8 119 -13 0 -155 -75 -213 -112 -211 -135 -413
-363 -518 -586 l-35 -72 -114 0 c-135 0 -132 -18 -32 185 245 496 745 846
1293 903 l77 8 0 -107 0 -107 -63 -6 c-34 -4 -87 -13 -117 -19 l-55 -12 -3
-113 c-1 -61 -1 -112 0 -112 2 0 49 9 106 20 163 32 399 25 555 -15 l27 -7 0
110 c0 61 -4 114 -10 117 -5 3 -57 13 -115 22 l-105 17 0 105 0 104 75 -6 c97
-9 234 -39 340 -75 l85 -30 0 123 0 123 -82 22 c-199 54 -255 61 -478 65 -152
3 -242 0 -307 -10z m1711 -2637 c-100 -197 -226 -333 -585 -629 -161 -133
-244 -217 -306 -309 -70 -104 -121 -232 -144 -365 l-11 -65 -105 0 -106 0 7
65 c13 124 74 301 147 427 88 151 196 263 464 479 176 142 295 260 369 367
l58 82 119 0 119 0 -26 -52z"/>
<path d="M7540 3775 l0 -505 545 0 545 0 -2 503 -3 502 -107 3 -108 3 0 -396
0 -395 -325 0 -325 0 0 285 0 285 105 0 105 0 0 -195 0 -196 108 3 107 3 3
303 2 302 -325 0 -325 0 0 -505z"/>
</g>
</svg>
