<?xml version="1.0" standalone="no"?>
<!DOCTYPE svg PUBLIC "-//W3C//DTD SVG 20010904//EN"
 "http://www.w3.org/TR/2001/REC-SVG-20010904/DTD/svg10.dtd">
<svg version="1.0" xmlns="http://www.w3.org/2000/svg"
 width="512.000000pt" height="512.000000pt" viewBox="0 0 512.000000 512.000000"
 preserveAspectRatio="xMidYMid meet">

<g transform="translate(0.000000,512.000000) scale(0.100000,-0.100000)"
fill="#000000" stroke="none">
<path d="M2586 4864 c-87 -21 -186 -78 -261 -150 -37 -35 -82 -68 -99 -72 -18
-5 -67 -7 -109 -4 -42 2 -105 -1 -139 -7 -95 -19 -214 -80 -277 -143 l-54 -54
-53 18 c-127 43 -284 30 -414 -34 -80 -39 -204 -159 -244 -238 l-28 -55 -76 3
c-52 3 -88 -1 -118 -13 -189 -72 -231 -267 -112 -528 l31 -67 -17 -53 c-10
-28 -20 -91 -23 -140 l-6 -87 -60 -33 c-136 -72 -251 -234 -278 -391 -30 -174
29 -363 150 -484 82 -82 83 -86 86 -235 3 -183 37 -274 143 -389 l58 -63 -19
-60 c-28 -87 -28 -228 1 -320 49 -159 167 -288 319 -350 l58 -24 -3 -66 c-7
-126 24 -152 168 -141 49 4 123 15 165 26 l76 19 47 -36 c88 -67 194 -103 309
-103 l72 0 33 -62 c76 -144 238 -256 406 -280 177 -26 344 29 478 157 38 36
84 69 102 74 18 5 65 7 105 4 159 -12 315 47 426 160 l43 43 56 -20 c83 -29
233 -28 327 1 80 25 173 81 230 139 50 51 112 147 127 196 6 21 14 37 17 36
97 -46 150 -46 195 1 38 39 41 79 17 211 l-21 115 96 96 c82 82 96 102 101
136 6 49 -17 98 -58 121 -28 16 -29 20 -29 89 l0 72 62 33 c129 68 238 214
274 364 31 132 5 292 -66 407 -28 45 -29 50 -15 70 36 51 8 105 -95 183 l-50
38 0 66 c0 140 -58 284 -154 381 l-52 54 18 59 c28 90 32 179 14 266 -56 267
-281 449 -554 450 -94 0 -128 15 -187 84 -103 119 -237 185 -393 194 l-92 5
-33 61 c-66 126 -213 236 -358 271 -79 18 -185 18 -263 -1z m216 -155 c105
-22 209 -94 255 -176 l22 -39 -57 -29 c-74 -39 -179 -144 -219 -220 -46 -89
-64 -159 -68 -272 -4 -91 -7 -108 -38 -170 -60 -121 -72 -167 -70 -283 1 -58
3 -116 5 -130 2 -20 -2 -26 -22 -28 -14 -2 -65 -20 -115 -40 -79 -31 -101 -36
-175 -36 -64 0 -99 6 -140 22 -122 49 -209 147 -245 274 -24 89 -37 110 -117
196 -142 152 -172 307 -94 477 42 93 149 183 251 210 17 5 86 9 155 10 153 1
186 14 290 109 128 118 241 155 382 125z m663 -378 c44 -22 87 -55 137 -107
102 -105 144 -125 288 -135 162 -11 228 -39 317 -130 62 -65 97 -147 101 -241
l4 -78 -67 45 c-96 65 -183 89 -300 83 -81 -4 -104 -10 -168 -41 -41 -19 -93
-52 -116 -72 l-41 -37 26 57 c39 85 37 184 -5 270 -36 73 -82 117 -161 154
-73 34 -182 35 -252 4 -62 -28 -134 -96 -166 -158 -23 -43 -27 -62 -27 -140 0
-78 4 -97 27 -140 35 -68 92 -122 158 -154 46 -22 68 -26 135 -25 90 1 127 14
199 69 l47 36 -23 -33 c-44 -65 -84 -100 -143 -130 -133 -67 -213 -152 -257
-270 -11 -32 -24 -57 -27 -56 -21 11 -84 40 -133 62 -79 34 -151 104 -191 185
-30 61 -32 72 -32 171 l0 106 49 99 c48 98 49 103 56 220 9 150 31 213 102
290 92 101 180 137 316 131 68 -3 95 -10 147 -35z m-2031 -87 c-60 -89 -86
-180 -82 -282 l3 -79 -70 54 c-38 30 -102 73 -142 95 -40 22 -73 44 -73 49 0
17 47 84 86 122 69 68 158 105 256 106 l66 1 -44 -66z m-537 -288 c3 -2 -6
-36 -18 -75 l-23 -70 -72 -25 c-82 -27 -84 -26 -84 48 0 100 43 141 139 132
29 -3 55 -7 58 -10z m2533 -15 c72 -38 99 -134 60 -210 -53 -106 -198 -110
-274 -8 -15 20 -20 43 -20 82 0 61 19 95 74 133 41 28 111 29 160 3z m-2082
-297 l40 -47 -42 -120 -41 -121 -118 -39 -118 -39 -46 39 c-26 21 -46 43 -45
48 1 6 50 26 108 45 68 23 113 44 125 58 10 13 33 68 51 123 18 54 35 99 39
99 4 0 25 -21 47 -46z m349 -219 c63 -123 150 -205 265 -246 59 -22 65 -28 49
-44 -5 -6 -23 -45 -41 -88 -42 -102 -108 -175 -198 -219 -63 -31 -73 -33 -173
-33 l-105 0 -99 49 c-97 49 -101 50 -219 57 -67 4 -136 12 -154 18 -98 30
-206 132 -243 229 -12 31 -24 90 -27 130 l-5 73 89 -89 c196 -195 404 -302
588 -302 68 0 91 4 134 26 154 77 194 260 103 479 -26 61 -2 35 36 -40z m2526
-15 c132 -50 216 -154 252 -314 5 -25 4 -28 -12 -21 -52 23 -156 44 -218 44
-170 1 -358 -83 -507 -229 -80 -77 -80 -103 0 -180 144 -140 335 -230 490
-230 121 0 273 48 376 119 l45 31 26 -53 c39 -80 51 -163 36 -243 -21 -115
-74 -198 -165 -260 l-50 -34 -31 58 c-93 175 -300 291 -522 292 -64 0 -81 5
-162 44 -106 52 -204 72 -301 62 -122 -12 -115 -13 -118 14 -2 14 -20 66 -40
115 -31 79 -36 101 -36 175 0 64 6 99 22 140 49 122 147 209 274 245 88 24
110 37 195 116 41 38 92 78 114 89 104 54 223 61 332 20z m-1450 -266 c62 -68
124 -110 228 -153 115 -48 120 -56 123 -193 3 -95 7 -124 30 -183 71 -182 70
-194 -11 -268 -67 -62 -109 -124 -153 -229 -18 -45 -44 -88 -60 -102 -26 -21
-36 -23 -93 -19 -85 7 -179 -10 -269 -49 -44 -19 -91 -32 -119 -32 -44 -1 -48
2 -100 58 -64 70 -126 112 -231 156 -45 18 -88 44 -102 60 -21 26 -23 36 -19
93 7 85 -10 179 -49 269 -19 44 -32 91 -32 119 -1 44 2 48 58 100 70 64 112
126 155 230 48 115 56 120 193 124 88 2 126 7 173 25 33 13 83 31 110 41 76
29 106 20 168 -47z m-2023 -244 c110 -110 227 -159 396 -165 96 -4 107 -7 195
-50 118 -57 220 -75 330 -58 80 13 89 11 89 -18 0 -11 17 -61 37 -112 32 -81
37 -102 37 -177 0 -64 -6 -99 -22 -140 -49 -122 -147 -209 -274 -245 -88 -24
-110 -37 -195 -116 -41 -38 -92 -78 -114 -89 -216 -111 -473 -15 -560 207 -19
48 -22 80 -24 188 -2 159 -13 190 -111 296 -74 82 -109 147 -126 238 -27 144
44 307 169 390 l47 31 30 -57 c17 -32 60 -87 96 -123z m3620 30 c65 -19 168
-75 205 -111 19 -19 19 -19 0 -38 -35 -35 -138 -91 -205 -112 -125 -39 -259
-19 -385 56 -73 44 -100 69 -90 85 13 21 125 89 182 110 109 41 178 43 293 10z
m-644 -654 c98 -48 101 -49 227 -56 114 -7 135 -11 190 -38 131 -65 214 -187
224 -330 6 -87 2 -95 -44 -86 -26 5 -36 19 -84 115 -64 132 -82 150 -146 156
-77 7 -102 -16 -169 -149 -31 -62 -57 -114 -58 -115 -1 -1 -60 -11 -131 -22
-127 -19 -131 -21 -164 -56 -31 -35 -33 -41 -29 -91 4 -48 3 -52 -11 -42 -48
36 -76 69 -103 123 -67 133 -152 213 -270 257 -32 11 -57 24 -56 27 11 21 40
84 61 133 43 98 135 180 240 214 26 9 76 13 133 11 86 -3 97 -6 190 -51z
m-1740 -265 c5 -5 44 -23 87 -41 102 -42 175 -108 219 -198 31 -63 33 -73 33
-173 l0 -105 -49 -99 c-49 -97 -50 -100 -56 -219 -5 -88 -13 -137 -30 -179
-30 -80 -113 -167 -198 -209 -62 -31 -74 -33 -167 -33 -83 1 -109 5 -152 24
-29 13 -53 25 -53 26 0 1 30 33 68 71 115 118 179 279 189 481 6 110 5 112
-20 137 -24 24 -33 26 -106 26 -70 0 -179 -16 -250 -36 -24 -7 -24 -6 7 32 17
21 46 59 65 84 18 25 57 59 87 76 174 101 237 164 281 285 22 60 27 66 45 50z
m954 -200 c120 -46 209 -145 245 -273 24 -89 37 -110 117 -196 112 -121 153
-238 129 -368 -26 -145 -115 -253 -249 -305 -47 -18 -79 -22 -187 -24 -159 -2
-190 -13 -295 -109 -88 -81 -146 -112 -240 -128 -55 -10 -83 -9 -132 1 -113
23 -218 93 -265 178 l-22 39 57 29 c74 39 179 144 219 220 45 87 63 156 70
275 6 97 9 112 49 192 26 55 47 115 54 160 12 67 9 174 -6 225 -5 19 -1 23 38
33 23 6 68 22 99 35 31 14 73 29 95 34 56 15 160 6 224 -18z m1190 -82 c51
-102 64 -113 155 -123 33 -4 75 -10 93 -13 l34 -6 -75 -76 c-41 -42 -77 -83
-80 -92 -3 -9 3 -62 12 -117 10 -56 15 -102 12 -102 -3 0 -44 20 -92 45 -48
25 -98 45 -111 45 -12 0 -61 -21 -107 -45 -45 -25 -86 -45 -91 -45 -4 0 1 45
11 100 10 55 16 108 12 118 -3 9 -39 51 -80 93 l-75 76 84 12 c145 22 143 20
196 127 25 52 49 94 52 94 3 0 26 -41 50 -91z m-3119 -360 c56 -17 88 -21 159
-17 l88 4 -50 -55 c-45 -51 -128 -199 -128 -230 0 -33 -112 31 -173 98 -66 74
-89 130 -95 229 l-5 84 67 -46 c38 -26 97 -55 137 -67z m2723 -11 c-4 -6 -10
-5 -15 3 -14 22 -10 33 6 19 8 -7 12 -17 9 -22z m-2025 -67 c-11 -78 -50 -178
-96 -248 -61 -93 -212 -176 -344 -190 l-59 -6 0 44 c0 60 48 193 95 264 65 97
246 194 366 195 l46 0 -8 -59z m2332 -268 c-64 -125 -185 -204 -323 -211 l-78
-4 44 65 c24 36 49 81 56 100 l11 35 52 -4 c48 -5 60 -1 157 50 74 38 106 51
108 41 2 -7 -10 -40 -27 -72z"/>
<path d="M2133 4302 c-175 -63 -261 -263 -185 -435 26 -59 100 -132 160 -160
73 -34 198 -31 274 6 65 32 121 90 152 156 30 65 30 197 0 262 -31 66 -87 124
-151 155 -73 36 -176 42 -250 16z m177 -164 c48 -25 90 -89 90 -138 0 -49 -42
-113 -90 -137 -24 -13 -56 -23 -70 -23 -14 0 -46 10 -70 23 -48 24 -90 88 -90
137 0 14 10 46 23 70 24 48 88 90 137 90 14 0 46 -10 70 -22z"/>
<path d="M1013 2542 c-139 -50 -222 -179 -211 -327 10 -116 74 -212 176 -262
49 -24 69 -28 142 -28 103 0 157 22 225 90 69 68 90 122 90 225 0 98 -20 152
-80 218 -79 88 -228 125 -342 84z m111 -204 c53 -48 25 -128 -44 -128 -81 0
-97 115 -20 143 27 10 39 7 64 -15z"/>
<path d="M2773 1421 c-138 -47 -222 -178 -211 -326 10 -116 74 -212 176 -262
49 -24 69 -28 142 -28 73 0 93 4 142 28 65 32 121 90 152 156 16 35 21 66 21
132 0 75 -4 92 -30 144 -72 142 -240 209 -392 156z m174 -157 c57 -28 87 -77
88 -144 0 -46 -5 -63 -27 -92 -55 -72 -153 -87 -223 -34 -149 114 -7 350 162
270z"/>
</g>
</svg>
